<svg width="10" height="12" viewBox="0 0 10 12" fill="none" xmlns="http://www.w3.org/2000/svg">
<g clip-path="url(#clip0_45_7566)">
<path d="M6.63125 1.49325C7.23875 2.47725 7.8185 4.06575 7.96475 6.6075L9.08975 7.98C9.35554 8.3126 9.50022 8.72575 9.5 9.1515V11.625C9.5 11.7037 9.47524 11.7804 9.42922 11.8443C9.3832 11.9081 9.31825 11.9559 9.24359 11.9808C9.16892 12.0056 9.08831 12.0064 9.01319 11.9829C8.93806 11.9595 8.87222 11.913 8.825 11.85L7.98125 10.725C7.85675 10.5585 7.66625 10.425 7.41725 10.2975C7.25675 10.2165 7.10675 10.1535 6.947 10.086L6.8 10.0238C6.275 10.3447 5.6375 10.5 5 10.5C4.3625 10.5 3.725 10.3447 3.2 10.0238C3.1495 10.0457 3.1 10.0668 3.0515 10.0868C2.89325 10.1535 2.74325 10.2165 2.58275 10.2975C2.33375 10.425 2.14325 10.5585 2.01875 10.725L1.175 11.85C1.12778 11.913 1.06194 11.9595 0.986813 11.9829C0.911687 12.0064 0.831082 12.0056 0.756415 11.9808C0.681748 11.9559 0.616804 11.9081 0.570784 11.8443C0.524764 11.7804 0.5 11.7037 0.5 11.625V9.1515C0.499992 8.72566 0.644942 8.3125 0.911 7.98L0.914 7.97625L2.03675 6.6075C2.1845 4.11525 2.7635 2.532 3.36725 1.5405C3.71675 0.96525 4.07225 0.594 4.34975 0.363C4.48953 0.245941 4.64051 0.142943 4.8005 0.0555C4.8612 0.0203378 4.92986 0.00123595 5 0C5.07575 0 5.1275 0.02025 5.1875 0.048C5.2155 0.0605 5.25175 0.07925 5.29625 0.10425C5.38475 0.15375 5.504 0.2295 5.6435 0.3405C5.92325 0.56325 6.281 0.92475 6.63125 1.49325ZM6.125 4.5C6.125 3.67125 5.621 3 5 3C4.379 3 3.875 3.67125 3.875 4.5C3.875 5.32875 4.379 6 5 6C5.621 6 6.125 5.32875 6.125 4.5Z" fill="white"/>
<path d="M4.99988 10.875C5.37488 10.875 5.74913 10.8405 6.10913 10.7708L5.29987 11.85C5.26494 11.8966 5.21965 11.9344 5.16758 11.9604C5.11551 11.9864 5.05809 12 4.99988 12C4.94166 12 4.88424 11.9864 4.83217 11.9604C4.7801 11.9344 4.73481 11.8966 4.69987 11.85L3.89062 10.7708C4.25062 10.8405 4.62563 10.875 4.99988 10.875Z" fill="white"/>
</g>
<defs>
<clipPath id="clip0_45_7566">
<rect width="10" height="12" fill="white"/>
</clipPath>
</defs>
</svg>
